<svg xmlns="http://www.w3.org/2000/svg"  viewBox="0 0 100 100" width="200px" height="200px"><path d="M69.508,94c-12.685,0-25.878-1.705-31.755-2.57C35.73,93.074,33.186,94,30.508,94h-10	c-6.341,0-11.5-5.159-11.5-11.5v-33c0-6.341,5.159-11.5,11.5-11.5h10c1.864,0,3.671,0.458,5.28,1.292	c1.983-1.945,4.398-4.007,7.188-5.825l5.031-10.449l-0.001-4.021c-0.002-3.209,1.553-6.249,4.158-8.129	c1.71-1.235,3.717-1.889,5.802-1.889c1.064,0,2.12,0.172,3.139,0.511c5.188,1.726,10.571,7.583,10.898,16.78	c0.135,3.791-0.432,6.486-0.945,8.857c1.194-0.086,2.451-0.142,3.735-0.142c12.849,0,17.276,5.794,18.729,10.655	c0.687,2.302,0.742,4.612,0.19,6.774c1.495,2.017,2.309,4.433,2.309,7.006c0,3.142-1.105,6.042-3.165,8.417	c0.1,0.82,0.15,1.668,0.15,2.541c0,3.672-1.33,6.984-3.667,9.35c-0.133,2.706-0.995,5.259-2.526,7.394	C83.537,91.686,77.715,94,69.508,94z" opacity=".35"/><path fill="#f2f2f2" d="M67.508,92c-12.685,0-25.878-1.705-31.755-2.57C33.73,91.074,31.186,92,28.508,92h-10	c-6.341,0-11.5-5.159-11.5-11.5v-33c0-6.341,5.159-11.5,11.5-11.5h10c1.864,0,3.671,0.458,5.28,1.292	c1.983-1.945,4.398-4.007,7.188-5.825l5.031-10.449l-0.001-4.021c-0.002-3.209,1.553-6.249,4.158-8.129	c1.71-1.235,3.717-1.889,5.802-1.889c1.064,0,2.12,0.172,3.139,0.511c5.188,1.726,10.571,7.583,10.898,16.78	c0.135,3.791-0.432,6.486-0.945,8.857c1.194-0.086,2.451-0.142,3.735-0.142c12.849,0,17.276,5.794,18.729,10.655	c0.687,2.302,0.742,4.612,0.19,6.774c1.495,2.017,2.309,4.433,2.309,7.006c0,3.142-1.105,6.042-3.165,8.417	c0.1,0.82,0.15,1.668,0.15,2.541c0,3.672-1.33,6.984-3.667,9.35c-0.133,2.706-0.995,5.259-2.526,7.394	C81.537,89.686,75.715,92,67.508,92z"/><path fill="#ffc7a3" d="M87.014,57.455c0-4.18-3.775-5.455-3.775-5.455s2.27-1.994,2.27-6.5c0-11-23.806-4-23.806-4 c-2.539-5.449,1.806-6,1.806-17c0-5.893-3.425-9.836-6.455-10.843c-2.242-0.746-4.548,0.974-4.547,3.337 c0.002,2.211,0.002,4.506,0.002,4.506c-1.019,7.028-9.584,17.807-9.584,17.807C35.373,43.676,33.508,50.5,33.508,50.5v-3 c0-2.761-2.239-5-5-5h-10c-2.761,0-5,2.239-5,5v33c0,2.761,2.239,5,5,5h10c2.761,0,5-2.239,5-5v2c0,0,17.281,3,34,3s13-11,13-11 s4-1,4-6.124c0-3.236-1-4.876-1-4.876S87.014,61.635,87.014,57.455z"/><path fill="#70bfff" d="M29.824,85.5H18.692c-2.863,0-5.184-2.321-5.184-5.184V47.684c0-2.863,2.321-5.184,5.184-5.184 h11.132c2.863,0,5.184,2.321,5.184,5.184v32.632C35.008,83.179,32.687,85.5,29.824,85.5z"/><path fill="none" stroke="#40396e" stroke-linecap="round" stroke-linejoin="round" stroke-miterlimit="10" stroke-width="3" d="M87.522,57.419c0-4.18-4.284-5.418-4.284-5.418s3.346-2.183,2.056-6.5c-2.98-9.975-23.805-4.345-23.778-5.083 c0.287-7.826,2.205-9.911,1.991-15.917c-0.209-5.889-3.425-9.836-6.455-10.843c-2.242-0.746-4.548,0.974-4.547,3.337 c0.002,2.211,0.002,5.506,0.002,5.506l-6.5,13.5c-7.551,4.369-12.5,11.5-12.5,11.5c0-2.761-2.239-5-5-5h-10c-2.761,0-5,2.239-5,5 v33c0,2.761,2.239,5,5,5h10c2.761,0,5-2.239,5-5v2c0,0,17.281,3,34,3s13-11,13-11s4-1,4-6.124c0-3.236-1-4.876-1-4.876 S87.522,61.598,87.522,57.419z"/><circle cx="23.501" cy="75.493" r="3.499" fill="#40396e"/></svg>