<svg xmlns="http://www.w3.org/2000/svg"  viewBox="0 0 100 100" width="200px" height="200px"><path d="M52.054,96c-12.139,0-23.857-5.088-32.15-13.96C11.495,73.043,7.323,61.293,8.157,48.953 c1.5-22.195,20.114-40.172,42.376-40.927C51.039,8.009,51.544,8,52.046,8c5.552,0,10.922,1.014,16.016,3.02l2.083-3.125 C71.35,6.083,73.372,5,75.55,5c0.334,0,0.669,0.026,0.996,0.077c2.448,0.366,4.514,2.156,5.234,4.556l6,20 c0.578,1.922,0.246,3.969-0.913,5.613c-1.162,1.646-2.979,2.646-4.989,2.747l-20.124,1.006L61.554,39 c-2.333,0-4.499-1.26-5.651-3.288c-1.221-2.153-1.126-4.764,0.243-6.817l0.321-0.482C55.017,28.138,53.54,28,52.044,28 c-0.229,0-0.457,0.003-0.688,0.01c-12.279,0.353-22.492,10.215-23.254,22.453c-0.417,6.697,1.878,13.074,6.465,17.956 C39.161,73.308,45.371,76,52.054,76c12.627,0,23.147-9.862,23.951-22.452C76.239,49.876,79.304,47,82.983,47h6.011 c1.913,0,3.765,0.796,5.081,2.186c1.32,1.392,2.018,3.289,1.915,5.205C94.738,77.723,75.439,96,52.054,96z" opacity=".35"/><path fill="#f2f2f2" d="M50.054,94c-12.139,0-23.857-5.088-32.15-13.96C9.495,71.043,5.323,59.293,6.157,46.953 c1.5-22.195,20.114-40.172,42.376-40.927C49.039,6.009,49.544,6,50.046,6c5.552,0,10.922,1.014,16.016,3.02l2.083-3.125 C69.35,4.083,71.372,3,73.55,3c0.334,0,0.669,0.026,0.996,0.077c2.448,0.366,4.514,2.156,5.234,4.556l6,20 c0.578,1.922,0.246,3.969-0.913,5.613c-1.162,1.646-2.979,2.646-4.989,2.747l-20.124,1.006L59.554,37 c-2.333,0-4.499-1.26-5.651-3.288c-1.221-2.153-1.126-4.764,0.243-6.817l0.321-0.482C53.017,26.138,51.54,26,50.044,26 c-0.229,0-0.457,0.003-0.688,0.01c-12.279,0.353-22.492,10.215-23.254,22.453c-0.417,6.697,1.878,13.074,6.465,17.956 C37.161,71.308,43.371,74,50.054,74c12.627,0,23.147-9.862,23.951-22.452C74.239,47.876,77.304,45,80.983,45h6.011 c1.913,0,3.765,0.796,5.081,2.186c1.32,1.392,2.018,3.289,1.915,5.205C92.738,75.723,73.439,94,50.054,94z"/><path fill="#96c362" d="M11.146,47.29c1.337-19.785,17.738-35.595,37.556-36.267c6.925-0.235,13.452,1.355,19.168,4.299 l4.436-6.654c0.321-0.483,0.894-0.74,1.47-0.651c0.574,0.086,1.048,0.496,1.215,1.052l6,20c0.133,0.442,0.055,0.919-0.211,1.296 c-0.266,0.376-0.69,0.61-1.15,0.633l-20,1C59.604,32,59.578,32,59.554,32c-0.538,0-1.037-0.289-1.305-0.759 c-0.279-0.493-0.258-1.101,0.057-1.573l3.962-5.944c-3.955-1.848-8.383-2.846-13.06-2.712 C34.365,21.438,22.036,33.33,21.112,48.151C20.062,64.976,33.451,79,50.054,79c15.364,0,27.975-12.009,28.941-27.133 C79.061,50.817,79.931,50,80.983,50h6.011c1.152,0,2.065,0.973,2.003,2.123C87.894,72.675,70.881,89,50.054,89 C27.618,89,9.607,70.055,11.146,47.29z"/><path fill="#40396e" d="M73.033,12.985l4.534,15.112l-15.112,0.756l2.31-3.465l0.645-0.968 c0.679-1.019,0.292-2.403-0.817-2.921l-1.054-0.493C59.269,19.012,54.729,18,50.044,18c-0.306,0-0.613,0.004-0.921,0.013 c-16.368,0.47-29.987,13.626-31.005,29.951c-0.557,8.925,2.505,17.424,8.619,23.932C32.77,78.317,41.269,82,50.054,82 c16.519,0,30.334-12.663,31.86-29h4.017c-1.648,20.028-19.587,35.208-40.296,32.736c-7.493-0.895-14.559-4.197-20.074-9.348 c-8.088-7.554-12.162-17.939-11.422-28.896c1.226-18.151,16.453-32.853,34.665-33.471C49.219,14.007,49.634,14,50.046,14 c5.777,0,11.312,1.342,16.45,3.989l0.794,0.409c0.905,0.466,2.015,0.178,2.58-0.669l0.496-0.744L73.033,12.985 M73.55,7.999 c-0.496,0-0.965,0.249-1.244,0.669l-4.436,6.654C62.525,12.569,56.472,11,50.046,11c-0.446,0-0.895,0.008-1.344,0.023 c-19.819,0.673-36.22,16.482-37.556,36.267C9.607,70.055,27.618,89,50.054,89c20.827,0,37.841-16.325,38.943-36.877 C89.059,50.973,88.146,50,86.994,50h-6.011c-1.052,0-1.921,0.817-1.988,1.867C78.029,66.991,65.417,79,50.054,79 c-16.603,0-29.991-14.024-28.942-30.849c0.924-14.821,13.253-26.713,28.097-27.139C49.488,21.004,49.766,21,50.044,21 c4.368,0,8.506,0.986,12.224,2.724l-3.962,5.944c-0.314,0.472-0.336,1.08-0.057,1.573C58.517,31.711,59.016,32,59.554,32 c0.024,0,0.05,0,0.075-0.002l20-1c0.46-0.023,0.885-0.256,1.15-0.633c0.266-0.377,0.344-0.854,0.211-1.296l-6-20 c-0.167-0.557-0.641-0.966-1.215-1.052C73.7,8.005,73.625,7.999,73.55,7.999L73.55,7.999z"/></svg>