<svg xmlns="http://www.w3.org/2000/svg"  viewBox="0 0 60 60" width="120px" height="120px"><path fill="#aac7c8" d="M58.89,27.51a1.7,1.7,0,0,0-1.07-1.39l-3.37-1.35a24.966,24.966,0,0,0-3.47-8.35l1.43-3.35a1.664,1.664,0,0,0-.23-1.74,30.617,30.617,0,0,0-3.51-3.51,1.664,1.664,0,0,0-1.74-.23L43.58,9.02a24.966,24.966,0,0,0-8.35-3.47L33.88,2.18a1.7,1.7,0,0,0-1.39-1.07,27.61,27.61,0,0,0-4.98,0,1.7,1.7,0,0,0-1.39,1.07L24.77,5.55a24.966,24.966,0,0,0-8.35,3.47L13.07,7.59a1.666,1.666,0,0,0-1.74.23,29.092,29.092,0,0,0-3.51,3.51,1.664,1.664,0,0,0-.23,1.74l1.43,3.35a24.966,24.966,0,0,0-3.47,8.35L2.18,26.12a1.7,1.7,0,0,0-1.07,1.39,27.61,27.61,0,0,0,0,4.98,1.7,1.7,0,0,0,1.07,1.39l3.37,1.35a24.966,24.966,0,0,0,3.47,8.35L7.59,46.93a1.664,1.664,0,0,0,.23,1.74,30.617,30.617,0,0,0,3.51,3.51,1.666,1.666,0,0,0,1.74.23l3.35-1.43a24.966,24.966,0,0,0,8.35,3.47l1.35,3.37a1.7,1.7,0,0,0,1.39,1.07,27.609,27.609,0,0,0,4.98,0,1.7,1.7,0,0,0,1.39-1.07l1.35-3.37a24.966,24.966,0,0,0,8.35-3.47l3.35,1.43a1.664,1.664,0,0,0,1.74-.23,29.092,29.092,0,0,0,3.51-3.51,1.664,1.664,0,0,0,.23-1.74l-1.43-3.35a24.966,24.966,0,0,0,3.47-8.35l3.37-1.35a1.7,1.7,0,0,0,1.07-1.39A27.609,27.609,0,0,0,58.89,27.51ZM30,51A21,21,0,1,1,51,30,21,21,0,0,1,30,51Z"/><circle cx="30" cy="30" r="17" fill="#3b437f"/><path fill="#86a9af" d="M30,52A22,22,0,1,1,52,30,22.025,22.025,0,0,1,30,52Zm0-42A20,20,0,1,0,50,30,20.023,20.023,0,0,0,30,10Z"/><path fill="#5afeb7" d="M24.707,24.293a1,1,0,0,0-1.414,0l-5,5a1,1,0,0,0,0,1.414l5,5a1,1,0,0,0,1.414-1.414L20.414,30l4.293-4.293A1,1,0,0,0,24.707,24.293Z"/><path fill="#5afeb7" d="M41.707,29.293l-5-5a1,1,0,0,0-1.414,1.414L39.586,30l-4.293,4.293a1,1,0,1,0,1.414,1.414l5-5A1,1,0,0,0,41.707,29.293Z"/><path fill="#5afeb7" d="M32.274,22.038a1.007,1.007,0,0,0-1.236.688l-4,14a1,1,0,0,0,.688,1.236A1.036,1.036,0,0,0,28,38a1,1,0,0,0,.961-.726l4-14A1,1,0,0,0,32.274,22.038Z"/></svg>