<svg xmlns="http://www.w3.org/2000/svg"  viewBox="0 0 30 30" width="80px" height="80px"><path fill="#f2faff" d="M11.5 24.5L11.5 1.5 22.793 1.5 28.5 7.207 28.5 24.5z"/><path fill="#788b9c" d="M22.586,2L28,7.414V24H12V2H22.586 M23,1H11v24h18V7L23,1L23,1z"/><path fill="#fff" d="M22.5 7.5L22.5 1.5 22.793 1.5 28.5 7.207 28.5 7.5z"/><path fill="#788b9c" d="M23,2.414L27.586,7H23V2.414 M23,1h-1v7h7V7L23,1L23,1z"/><g><path fill="#fff" d="M1.5 28.5L1.5 5.5 12.793 5.5 18.5 11.207 18.5 28.5z"/><path fill="#788b9c" d="M12.586,6L18,11.414V28H2V6H12.586 M13,5H1v24h18V11L13,5L13,5z"/></g><g><path fill="#fff" d="M12.5 11.5L12.5 5.5 12.793 5.5 18.5 11.207 18.5 11.5z"/><path fill="#788b9c" d="M13,6.414L17.586,11H13V6.414 M13,5h-1v7h7v-1L13,5L13,5z"/></g></svg>